{
  "accessors": [
    {
      "bufferView": 3,
      "componentType": 5126,
      "count": 1723,
      "max": [
        0.08915677666664124,
        0.37246209383010864,
        0.2697858512401581
      ],
      "min": [
        -0.08915677666664124,
        0.0005297834286466241,
        -0.22149795293807983
      ],
      "type": "VEC3"
    },
    {
      "bufferView": 3,
      "byteOffset": 20676,
      "componentType": 5126,
      "count": 1723,
      "max": [
        0.9985406994819641,
        0.9999996423721313,
        0.9995703101158142
      ],
      "min": [
        -0.9985406398773193,
        -1.0,
        -0.9994209408760071
      ],
      "type": "VEC3"
    },
    {
      "bufferView": 2,
      "componentType": 5126,
      "count": 1723,
      "max": [
        0.9963914155960083,
        0.9924643635749817
      ],
      "min": [
        0.013451136648654938,
        0.011391699314117432
      ],
      "type": "VEC2"
    },
    {
      "bufferView": 1,
      "componentType": 5125,
      "count": 8868,
      "type": "SCALAR"
    },
    {
      "bufferView": 5,
      "componentType": 5126,
      "count": 17,
      "max": [
        1.0,
        0.25099706649780273,
        0.9999271035194397,
        0.0,
        0.0001262042496819049,
        1.0,
        0.9095162153244019,
        0.0,
        1.0000001192092896,
        1.0,
        1.0,
        0.0,
        0.0665706917643547,
        0.16246281564235687,
        0.20124103128910065,
        1.0
      ],
      "min": [
        -0.8577967286109924,
        -0.2509970963001251,
        -0.9999269843101501,
        0.0,
        -0.00013867217057850212,
        -0.9999271035194397,
        -1.0,
        0.0,
        -1.0000001192092896,
        -0.909517228603363,
        -0.9923357963562012,
        0.0,
        -0.0665706917643547,
        -0.3471831977367401,
        -0.23566670715808868,
        1.0
      ],
      "type": "MAT4"
    },
    {
      "bufferView": 0,
      "componentType": 5123,
      "count": 1723,
      "type": "VEC4"
    },
    {
      "bufferView": 4,
      "componentType": 5126,
      "count": 1723,
      "max": [
        1.0,
        0.5,
        0.25,
        0.08426441997289658
      ],
      "min": [
        0.35219356417655945,
        0.0,
        0.0,
        0.0
      ],
      "type": "VEC4"
    }
  ],
  "asset": {
    "extras": {
      "author": "jomuraegi (https://sketchfab.com/jomuraegi)",
      "license": "CC-BY-4.0 (http://creativecommons.org/licenses/by/4.0/)",
      "source": "https://sketchfab.com/3d-models/lowpoly-horse-plush-8fb8debd97e6455d879da3106525d3a1",
      "title": "lowpoly Horse Plush"
    },
    "generator": "Sketchfab-16.95.0",
    "version": "2.0"
  },
  "bufferViews": [
    {
      "buffer": 0,
      "byteLength": 13784,
      "byteStride": 8,
      "name": "shortBufferViews",
      "target": 34962
    },
    {
      "buffer": 0,
      "byteLength": 35472,
      "byteOffset": 13784,
      "name": "floatBufferViews",
      "target": 34963
    },
    {
      "buffer": 0,
      "byteLength": 13784,
      "byteOffset": 49256,
      "byteStride": 8,
      "name": "floatBufferViews",
      "target": 34962
    },
    {
      "buffer": 0,
      "byteLength": 41352,
      "byteOffset": 63040,
      "byteStride": 12,
      "name": "floatBufferViews",
      "target": 34962
    },
    {
      "buffer": 0,
      "byteLength": 27568,
      "byteOffset": 104392,
      "byteStride": 16,
      "name": "floatBufferViews",
      "target": 34962
    },
    {
      "buffer": 0,
      "byteLength": 1088,
      "byteOffset": 131960,
      "name": "floatBufferViews"
    }
  ],
  "buffers": [
    {
      "byteLength": 133048,
      "uri": "scene.bin"
    }
  ],
  "extensionsUsed": [
    "KHR_materials_specular"
  ],
  "images": [
    {
      "uri": "textures/HorsePlush_baseColor.png"
    }
  ],
  "materials": [
    {
      "doubleSided": true,
      "extensions": {
        "KHR_materials_specular": {
          "specularColorFactor": [
            1.0,
            1.0,
            1.0
          ],
          "specularFactor": 0.49828723287537635
        }
      },
      "name": "HorsePlush",
      "pbrMetallicRoughness": {
        "baseColorTexture": {
          "index": 0
        },
        "metallicFactor": 0.0,
        "roughnessFactor": 0.7394277773037023
      }
    }
  ],
  "meshes": [
    {
      "name": "HorsePlush_HorsePlush_0",
      "primitives": [
        {
          "attributes": {
            "JOINTS_0": 5,
            "NORMAL": 1,
            "POSITION": 0,
            "TEXCOORD_0": 2,
            "WEIGHTS_0": 6
          },
          "indices": 3,
          "material": 0,
          "mode": 4
        }
      ]
    }
  ],
  "nodes": [
    {
      "children": [
        1
      ],
      "matrix": [
        1.0,
        0.0,
        0.0,
        0.0,
        0.0,
        2.220446049250313e-16,
        -1.0,
        0.0,
        0.0,
        1.0,
        2.220446049250313e-16,
        0.0,
        0.0,
        0.0,
        0.0,
        1.0
      ],
      "name": "Sketchfab_model"
    },
    {
      "children": [
        2
      ],
      "matrix": [
        0.009999999776482582,
        0.0,
        0.0,
        0.0,
        0.0,
        0.0,
        0.009999999776482582,
        0.0,
        0.0,
        -0.009999999776482582,
        0.0,
        0.0,
        0.0,
        0.0,
        0.0,
        1.0
      ],
      "name": "59f9eea285b545ad9707bcaba68d2497.fbx"
    },
    {
      "children": [
        3
      ],
      "name": "RootNode"
    },
    {
      "children": [
        4
      ],
      "matrix": [
        100.0,
        0.0,
        0.0,
        0.0,
        0.0,
        -1.629206793918314e-05,
        -99.99999999999868,
        0.0,
        0.0,
        99.99999999999868,
        -1.629206793918314e-05,
        0.0,
        0.0,
        0.0,
        0.0,
        1.0
      ],
      "name": "Armature"
    },
    {
      "children": [
        5,
        23,
        22
      ],
      "name": "Object_4"
    },
    {
      "children": [
        6
      ],
      "name": "_rootJoint"
    },
    {
      "children": [
        7
      ],
      "name": "root_00",
      "rotation": [
        1.0,
        -3.0318952643632047e-12,
        -6.933609256520867e-05,
        -4.371138828673793e-08
      ]
    },
    {
      "children": [
        8,
        15,
        20,
        21
      ],
      "name": "Spine.001_01",
      "rotation": [
        -0.05096549540758133,
        7.067653496051207e-05,
        3.4607410270837136e-06,
        0.9987004399299622
      ],
      "scale": [
        1.0,
        0.9999999403953552,
        1.0
      ],
      "translation": [
        -2.65048674918944e-05,
        -0.10904578864574432,
        -0.1911332607269287
      ]
    },
    {
      "children": [
        9,
        13,
        14
      ],
      "name": "Spine.002_02",
      "rotation": [
        0.06115211918950081,
        -2.381604417678318e-06,
        2.9279403790383185e-08,
        0.9981284737586975
      ],
      "scale": [
        1.0,
        1.0,
        0.9999999403953552
      ],
      "translation": [
        -7.112957141688914e-14,
        0.09252101927995682,
        8.149072527885437e-10
      ]
    },
    {
      "children": [
        10
      ],
      "name": "Neck_03",
      "rotation": [
        -0.3237210810184479,
        -2.6771458856190977e-13,
        6.174489044497022e-07,
        0.9461525678634644
      ],
      "scale": [
        1.0,
        0.9999999403953552,
        0.9999999403953552
      ],
      "translation": [
        1.580354770658321e-14,
        0.08975089341402054,
        1.3969838619232178e-08
      ]
    },
    {
      "children": [
        11,
        12
      ],
      "name": "Head_04",
      "rotation": [
        -0.11784667521715164,
        -2.3675721649851766e-07,
        2.528715299376927e-07,
        0.9930317997932434
      ],
      "scale": [
        1.0,
        0.9999998807907104,
        0.9999998807907104
      ],
      "translation": [
        -4.215009417884996e-14,
        0.03992210328578949,
        -2.7755575615628914e-17
      ]
    },
    {
      "name": "Ear.L_05",
      "rotation": [
        0.15120063722133636,
        0.9596525430679321,
        -0.08924606442451477,
        -0.2196372151374817
      ],
      "scale": [
        1.0,
        1.0000003576278687,
        1.0
      ],
      "translation": [
        0.04247012361884117,
        0.10048087686300278,
        -0.017495375126600266
      ]
    },
    {
      "name": "Ear.R_06",
      "rotation": [
        -0.15120084583759308,
        0.9596530795097351,
        -0.0892457515001297,
        0.21963489055633545
      ],
      "scale": [
        1.0,
        1.0000003576278687,
        1.0
      ],
      "translation": [
        -0.04247020557522774,
        0.10048088431358337,
        -0.017495159059762955
      ]
    },
    {
      "name": "Foreleg.L_07",
      "rotation": [
        0.4979158937931061,
        -0.508056640625,
        -0.4918113946914673,
        0.5020754337310791
      ],
      "scale": [
        1.0,
        0.9999998807907104,
        0.9999999403953552
      ],
      "translation": [
        0.04952220991253853,
        0.08535493910312653,
        0.09842139482498169
      ]
    },
    {
      "name": "Foreleg.R_08",
      "rotation": [
        0.4979168772697449,
        0.5080575942993164,
        0.49181050062179565,
        0.5020744204521179
      ],
      "scale": [
        0.9999999403953552,
        0.9999999403953552,
        1.0
      ],
      "translation": [
        -0.04952183738350868,
        0.08535493910312653,
        0.09842158108949661
      ]
    },
    {
      "children": [
        16
      ],
      "name": "Tail.001_09",
      "rotation": [
        0.9650073051452637,
        1.8568614905234426e-05,
        -6.556973676197231e-05,
        -0.2622230350971222
      ],
      "scale": [
        1.0,
        1.0,
        1.0000011920928955
      ],
      "translation": [
        7.81596900915893e-13,
        -1.1175870895385742e-08,
        -6.51925802230835e-09
      ]
    },
    {
      "children": [
        17
      ],
      "name": "Tail.002_010",
      "rotation": [
        -0.5590275526046753,
        3.4133518928003426e-11,
        7.75705193518661e-05,
        0.829149067401886
      ],
      "translation": [
        3.6026830390473163e-12,
        0.02360713481903076,
        3.725290298461914e-09
      ]
    },
    {
      "children": [
        18
      ],
      "name": "Tail.003_011",
      "rotation": [
        -0.33780109882354736,
        2.7416877795838346e-11,
        4.687315959017724e-05,
        0.9412175416946411
      ],
      "scale": [
        1.0,
        0.9999999403953552,
        0.9999999403953552
      ],
      "translation": [
        3.2102222356084065e-12,
        0.026969701051712036,
        7.450580596923828e-09
      ]
    },
    {
      "children": [
        19
      ],
      "name": "Tail.004_012",
      "rotation": [
        0.051961321383714676,
        -5.807878050018145e-12,
        -7.210140211100224e-06,
        0.9986491203308105
      ],
      "scale": [
        1.0,
        1.0,
        1.0000001192092896
      ],
      "translation": [
        -5.250852378770043e-13,
        0.05356336385011673,
        3.725290298461914e-09
      ]
    },
    {
      "name": "Tail.005_013",
      "rotation": [
        0.2664240002632141,
        -2.5827014138446458e-11,
        -3.6968893255107105e-05,
        0.9638559222221375
      ],
      "scale": [
        1.0,
        1.0,
        1.0000001192092896
      ],
      "translation": [
        -1.9876361841142387e-12,
        0.05404588580131531,
        1.1175870895385742e-08
      ]
    },
    {
      "name": "HindLeg.L_014",
      "rotation": [
        0.527688205242157,
        -0.4770316779613495,
        -0.5219585299491882,
        0.4706859588623047
      ],
      "scale": [
        0.9999999403953552,
        1.0,
        1.0
      ],
      "translation": [
        0.04952175170183182,
        0.03301887586712837,
        0.09457682818174362
      ]
    },
    {
      "name": "HindLeg.R_015",
      "rotation": [
        0.527686595916748,
        0.47703027725219727,
        0.5219600796699524,
        0.4706874191761017
      ],
      "scale": [
        0.9999999403953552,
        0.9999998211860657,
        0.9999998211860657
      ],
      "translation": [
        -0.04952229559421539,
        0.033018872141838074,
        0.09457654505968094
      ]
    },
    {
      "matrix": [
        100.00000192299743,
        4.656612873077393e-10,
        1.824416163074733e-20,
        0.0,
        1.8244132766382877e-20,
        6.123233995736766e-15,
        -100.0,
        0.0,
        -4.656612873077393e-10,
        100.00000192299743,
        6.123234113486398e-15,
        0.0,
        0.0,
        0.0,
        0.0,
        1.0
      ],
      "name": "Object_22"
    },
    {
      "mesh": 0,
      "name": "Object_23",
      "skin": 0
    }
  ],
  "samplers": [
    {
      "magFilter": 9729,
      "minFilter": 9987,
      "wrapS": 10497,
      "wrapT": 10497
    }
  ],
  "scene": 0,
  "scenes": [
    {
      "name": "Sketchfab_Scene",
      "nodes": [
        0
      ]
    }
  ],
  "skins": [
    {
      "inverseBindMatrices": 4,
      "joints": [
        5,
        6,
        7,
        8,
        9,
        10,
        11,
        12,
        13,
        14,
        15,
        16,
        17,
        18,
        19,
        20,
        21
      ],
      "skeleton": 5
    }
  ],
  "textures": [
    {
      "sampler": 0,
      "source": 0
    }
  ]
}
